# xmcd
#
# Track frame offsets:
# 150
# 14880
# 31073
# 55211
# 74434
# 87391
# 108603
# 128348
# 148097
# 165652
#
# Disc length: 2508 seconds
#
#
# Revision: 0
# Processed by: cddbd v1.5.1PL0 Copyright (c) Steve Scherf et al.
# Submitted via: FreeRIP 2.94 
#
DISCID=8a09ca0a
DTITLE=Jerry Wilde - Tools of the Trade
DYEAR=2005
DGENRE=Blues
TTITLE0=Bed, Beer, and T.V. (Everymans's Blues)
TTITLE1=Father and Son
TTITLE2=Who Can You Trust
TTITLE3=Alcohol is the Doctor
TTITLE4=Theme from an Imaginary Prison Movie
TTITLE5=The People I Love to Hate
TTITLE6=Hoo Doo Woman
TTITLE7=This Child of Mine
TTITLE8=Beer Goggle Blues
TTITLE9=The Fat Cat Stomp
EXTD=BluesfestRadio.com
EXTT0=
EXTT1=
EXTT2=
EXTT3=
EXTT4=
EXTT5=
EXTT6=
EXTT7=
EXTT8=
EXTT9=
PLAYORDER=
